<svg width="314" height="117" viewBox="0 0 314 117" fill="none" xmlns="http://www.w3.org/2000/svg">
<path d="M78.386 108.576C77.984 107.724 77.084 107.34 75.926 107.34C74.426 107.34 73.526 108.048 73.214 109.158L74.384 109.518C74.606 108.798 75.23 108.498 75.914 108.498C76.928 108.498 77.336 108.918 77.378 109.812C76.328 109.956 75.26 110.094 74.51 110.316C73.508 110.634 72.98 111.258 72.98 112.236C72.98 113.292 73.736 114.18 75.17 114.18C76.22 114.18 76.97 113.82 77.504 113.058V114H78.614V110.01C78.614 109.47 78.59 109.002 78.386 108.576ZM75.392 113.154C74.588 113.154 74.222 112.728 74.222 112.224C74.222 111.714 74.6 111.438 75.116 111.264C75.662 111.102 76.388 111 77.366 110.856C77.36 111.156 77.336 111.57 77.234 111.87C77.09 112.5 76.46 113.154 75.392 113.154Z" fill="#828282"/>
<path d="M77.124 69V60.36H75.846L74.22 61.332V62.73L75.846 61.74V69H77.124Z" fill="#828282"/>
<path d="M43.5 84C43.5 79.5817 47.0817 76 51.5 76H100.5C104.918 76 108.5 79.5817 108.5 84V97H43.5V84Z" fill="#FABE7A"/>
<path d="M157.358 107.34C156.632 107.34 156.044 107.568 155.594 107.964V105.36H154.334V114H155.45V113.406C155.918 113.892 156.566 114.18 157.382 114.18C159.188 114.18 160.316 112.698 160.316 110.754C160.316 108.798 159.182 107.34 157.358 107.34ZM157.208 113.046C155.972 113.046 155.45 112.098 155.45 110.754C155.45 109.41 155.984 108.474 157.166 108.474C158.414 108.474 158.984 109.482 158.984 110.754C158.984 112.038 158.414 113.046 157.208 113.046Z" fill="#828282"/>
<path d="M157.1 7.45C156.59 7.45 156.05 7.612 155.624 7.918L155.768 5.542H159.308V4.36H154.646L154.382 8.902L155.474 9.286C155.744 8.926 156.23 8.59 156.938 8.59C157.862 8.59 158.636 9.334 158.636 10.282C158.636 11.206 157.886 11.968 156.938 11.968C156.218 11.968 155.504 11.482 155.306 10.714L154.1 11.038C154.454 12.298 155.57 13.18 156.902 13.18C158.516 13.18 159.902 11.89 159.902 10.282C159.902 8.662 158.714 7.45 157.1 7.45Z" fill="#828282"/>
<path d="M124.5 28C124.5 23.5817 128.082 20 132.5 20H181.5C185.918 20 189.5 23.5817 189.5 28V97H124.5V28Z" fill="#F6866A"/>
<path d="M238.112 114.18C239.504 114.18 240.512 113.49 240.938 112.218L239.666 111.918C239.402 112.614 238.916 112.998 238.112 112.998C236.924 112.998 236.318 112.098 236.312 110.76C236.318 109.464 236.882 108.522 238.112 108.522C238.838 108.522 239.444 108.948 239.69 109.674L240.938 109.314C240.614 108.096 239.546 107.34 238.13 107.34C236.168 107.34 234.992 108.756 234.98 110.76C234.992 112.734 236.126 114.18 238.112 114.18Z" fill="#828282"/>
<path d="M240.518 38.554V37.36H235.322V38.554H238.982L236.342 40.888L236.93 41.878C237.176 41.746 237.47 41.662 237.746 41.662C238.706 41.662 239.36 42.358 239.36 43.318C239.36 44.272 238.706 44.962 237.758 44.974C237.05 44.98 236.42 44.578 236.192 43.828L234.98 44.164C235.346 45.394 236.474 46.162 237.758 46.162C239.372 46.162 240.644 44.968 240.644 43.318C240.644 41.914 239.78 40.792 238.382 40.606L240.518 38.554Z" fill="#828282"/>
<path d="M205.5 61C205.5 56.5817 209.082 53 213.5 53H262.5C266.918 53 270.5 56.5817 270.5 61V97H205.5V61Z" fill="#59E6F6"/>
</svg>
