<svg width="220" height="215" viewBox="0 0 220 215" fill="none" xmlns="http://www.w3.org/2000/svg">
<ellipse cx="110.211" cy="107.5" rx="30.0175" ry="29.5" fill="#FABE7A"/>
<g clip-path="url(#clip0_160_4412)">
<rect width="60.0351" height="59" rx="29.5" transform="matrix(-1 0 0 1 140.228 78)" fill="#FABE7A"/>
<path d="M114.327 122.963C112.834 120.524 109.407 115.849 101.247 109.279C88.9336 99.3659 100.555 90.2985 113.039 95.1277C114.375 95.6444 118.076 93.5761 121.504 95.7551C123.716 97.1607 122.855 98.2623 123.716 99.3639C124.577 100.466 127.897 100.401 128.624 103.261C129.055 104.956 127.863 106.731 128.022 108.006C128.182 109.282 129.44 110.432 129.5 112.116C129.526 112.827 129.409 113.536 129.156 114.203C128.903 114.87 128.519 115.481 128.026 116.002C127.532 116.523 126.939 116.943 126.281 117.239C125.622 117.534 124.91 117.7 124.187 117.725C124.181 119.131 123.622 120.48 122.627 121.491C121.633 122.502 120.279 123.095 118.85 123.148C117.933 123.181 117.022 122.987 116.202 122.585C115.387 123.322 114.688 123.554 114.327 122.963Z" fill="url(#paint0_linear_160_4412)"/>
<path d="M111.275 94.5276C113.397 95.8657 116.024 100.255 114.871 106.146C114.619 107.431 115.405 107.816 116.077 106.231C118.105 101.447 118.341 97.1329 114.871 95.0693C114.268 94.7124 113.923 95.0015 113.492 94.9664C112.672 94.8997 111.569 94.329 111.275 94.5276Z" fill="url(#paint1_linear_160_4412)"/>
<path d="M114.032 120.444C114.032 118.919 114.085 111.4 114.082 111.273C118.341 111.89 118.255 103.929 113.946 105.877C112.998 106.469 110.326 105.877 110.585 100.964C105.931 105.877 100.528 100.147 100.065 104.816C99.4323 111.191 100.069 117.862 104.1 117.863C104.541 117.857 104.981 117.814 105.414 117.734V120.444C105.414 122.138 102.312 122.985 102.312 122.985C102.312 122.985 107.671 127.948 109.896 127.92C112.12 127.893 117.135 122.985 117.135 122.985C117.135 122.985 114.032 122.138 114.032 120.444Z" fill="url(#paint2_linear_160_4412)"/>
<g style="mix-blend-mode:multiply">
<path d="M105.414 117.733C107.553 117.267 109.579 116.398 111.381 115.175C111.381 115.175 109.894 118.748 105.42 119.426L105.414 117.733Z" fill="#FFDBC9"/>
</g>
<path d="M93.8667 128.066C92.6163 130.797 91.9708 139.076 91.9708 139.076H127.477C127.477 139.076 126.831 130.797 125.581 128.066C124.485 125.674 117.266 122.927 115.151 122.138C113.929 123.481 112.179 124.34 109.724 124.34C107.269 124.34 105.518 123.481 104.297 122.138C102.181 122.927 94.9623 125.674 93.8667 128.066Z" fill="url(#paint3_linear_160_4412)"/>
</g>
<path d="M165.184 107.5C165.184 137.299 140.597 161.5 110.211 161.5C79.8249 161.5 55.2371 137.299 55.2371 107.5C55.2371 77.7011 79.8249 53.5 110.211 53.5C140.597 53.5 165.184 77.7011 165.184 107.5Z" stroke="url(#paint4_linear_160_4412)" stroke-width="3"/>
<path d="M116.552 187.523C71.7009 191.075 32.4569 158.224 28.8486 114.208C25.2402 70.192 58.6267 31.591 103.478 28.0398C148.33 24.4887 187.574 57.3391 191.182 101.355C194.79 145.371 161.404 183.972 116.552 187.523Z" stroke="url(#paint5_linear_160_4412)" stroke-width="3"/>
<path d="M218.097 107.5C218.097 166.018 169.819 213.5 110.211 213.5C50.6022 213.5 2.32471 166.018 2.32471 107.5C2.32471 48.9823 50.6022 1.5 110.211 1.5C169.819 1.5 218.097 48.9823 218.097 107.5Z" stroke="url(#paint6_linear_160_4412)" stroke-width="3"/>
<defs>
<linearGradient id="paint0_linear_160_4412" x1="113.35" y1="123.351" x2="112.325" y2="93.5679" gradientUnits="userSpaceOnUse">
<stop stop-color="#E6864E"/>
<stop offset="1" stop-color="#E67240"/>
</linearGradient>
<linearGradient id="paint1_linear_160_4412" x1="114.413" y1="94.4858" x2="114.413" y2="107.272" gradientUnits="userSpaceOnUse">
<stop stop-color="#1D0024"/>
<stop offset="1" stop-color="#100014"/>
</linearGradient>
<linearGradient id="paint2_linear_160_4412" x1="108.541" y1="100.964" x2="108.541" y2="127.92" gradientUnits="userSpaceOnUse">
<stop stop-color="#FFE0CC"/>
<stop offset="1" stop-color="#FFEADB"/>
</linearGradient>
<linearGradient id="paint3_linear_160_4412" x1="109.724" y1="122.138" x2="109.724" y2="139.076" gradientUnits="userSpaceOnUse">
<stop stop-color="#130027"/>
<stop offset="1" stop-color="#130017"/>
</linearGradient>
<linearGradient id="paint4_linear_160_4412" x1="98.0002" y1="107" x2="87.6666" y2="56.4284" gradientUnits="userSpaceOnUse">
<stop stop-color="#6956E5" stop-opacity="0"/>
<stop offset="0.976403" stop-color="#6956E5"/>
</linearGradient>
<linearGradient id="paint5_linear_160_4412" x1="68.2958" y1="86.7816" x2="183.175" y2="68.2145" gradientUnits="userSpaceOnUse">
<stop stop-color="#FB896B" stop-opacity="0"/>
<stop offset="1" stop-color="#FB896B"/>
</linearGradient>
<linearGradient id="paint6_linear_160_4412" x1="42.544" y1="47" x2="57.7819" y2="203.052" gradientUnits="userSpaceOnUse">
<stop stop-color="#F8C07F" stop-opacity="0"/>
<stop offset="1" stop-color="#F8C07F"/>
</linearGradient>
<clipPath id="clip0_160_4412">
<rect width="60.0351" height="59" rx="29.5" transform="matrix(-1 0 0 1 140.228 78)" fill="white"/>
</clipPath>
</defs>
</svg>
