<svg width="12" height="14" viewBox="0 0 12 14" fill="none" xmlns="http://www.w3.org/2000/svg">
<path d="M2.94336 6.43164H4.16557V7.65385H2.94336V6.43164ZM2.94336 8.87605H4.16557V10.0983H2.94336V8.87605ZM5.38777 6.43164H6.60998V7.65385H5.38777V6.43164ZM5.38777 8.87605H6.60998V10.0983H5.38777V8.87605ZM7.83218 6.43164H9.05439V7.65385H7.83218V6.43164ZM7.83218 8.87605H9.05439V10.0983H7.83218V8.87605Z" fill="#8097A4"/>
<path d="M1.72025 13.1527H10.2757C10.9497 13.1527 11.4979 12.6046 11.4979 11.9305V4.59728V3.37508C11.4979 2.70103 10.9497 2.15287 10.2757 2.15287H9.05349V0.930664H7.83128V2.15287H4.16466V0.930664H2.94246V2.15287H1.72025C1.04621 2.15287 0.498047 2.70103 0.498047 3.37508V4.59728V11.9305C0.498047 12.6046 1.04621 13.1527 1.72025 13.1527ZM10.2757 4.59728L10.2763 11.9305H1.72025V4.59728H10.2757Z" fill="#8097A4"/>
</svg>
