<svg width="40" height="40" viewBox="0 0 40 40" fill="none" xmlns="http://www.w3.org/2000/svg">
<path d="M24.6668 14.6665H8.00016C7.63216 14.6665 7.3335 14.9652 7.3335 15.3332C7.3335 15.7012 7.63216 15.9998 8.00016 15.9998H24.6668C25.0348 15.9998 25.3335 15.7012 25.3335 15.3332C25.3335 14.9652 25.0348 14.6665 24.6668 14.6665Z" fill="#8097A4"/>
<path d="M8.00016 10.6668H14.6668C15.0348 10.6668 15.3335 10.3682 15.3335 10.0002C15.3335 9.63216 15.0348 9.3335 14.6668 9.3335H8.00016C7.63216 9.3335 7.3335 9.63216 7.3335 10.0002C7.3335 10.3682 7.63216 10.6668 8.00016 10.6668Z" fill="#8097A4"/>
<path d="M25.3335 20.6667C25.3335 20.2987 25.0348 20 24.6668 20H8.00016C7.63216 20 7.3335 20.2987 7.3335 20.6667C7.3335 21.0347 7.63216 21.3333 8.00016 21.3333H24.6668C25.0348 21.3333 25.3335 21.0347 25.3335 20.6667Z" fill="#8097A4"/>
<path d="M20.0002 26.0002C20.0002 25.6322 19.7015 25.3335 19.3335 25.3335H8.00016C7.63216 25.3335 7.3335 25.6322 7.3335 26.0002C7.3335 26.3682 7.63216 26.6668 8.00016 26.6668H19.3335C19.7015 26.6668 20.0002 26.3682 20.0002 26.0002Z" fill="#8097A4"/>
<path d="M8.00016 30.6665C7.63216 30.6665 7.3335 30.9652 7.3335 31.3332C7.3335 31.7012 7.63216 31.9998 8.00016 31.9998H17.3335C17.7015 31.9998 18.0002 31.7012 18.0002 31.3332C18.0002 30.9652 17.7015 30.6665 17.3335 30.6665H8.00016Z" fill="#8097A4"/>
<path d="M2.00008 1.33333H21.3334V10.6667H30.6668V22H32.0001V9.724L22.2761 0H0.666748V40H21.3334V38.6667H2.00008V1.33333ZM22.6668 2.276L29.7241 9.33333H22.6668V2.276Z" fill="#8097A4"/>
<path d="M23.3335 24V40H39.3335V24H23.3335ZM38.0002 38.6667H32.0002V30.276L34.8622 33.138L35.8048 32.1953L31.3335 27.724L26.8622 32.1953L27.8048 33.138L30.6668 30.276V38.6667H24.6668V25.3333H38.0002V38.6667Z" fill="#8097A4"/>
</svg>
