<svg width="24" height="28" viewBox="0 0 24 28" fill="none" xmlns="http://www.w3.org/2000/svg">
<path fill-rule="evenodd" clip-rule="evenodd" d="M20.9428 9.72828C20.9428 11.4029 21.3854 12.3899 22.3594 13.5273C23.0975 14.3653 23.3334 15.4409 23.3334 16.6079C23.3334 17.7735 22.9504 18.88 22.1831 19.7784C21.1787 20.8554 19.7621 21.543 18.3163 21.6625C16.2213 21.8411 14.1249 21.9915 12.0007 21.9915C9.87514 21.9915 7.78008 21.9015 5.68502 21.6625C4.23796 21.543 2.82138 20.8554 1.81824 19.7784C1.05098 18.88 0.666687 17.7735 0.666687 16.6079C0.666687 15.4409 0.903889 14.3653 1.64067 13.5273C2.64513 12.3899 3.05858 11.4029 3.05858 9.72828V9.16024C3.05858 6.91762 3.61779 5.4512 4.76935 4.01565C6.48144 1.9221 9.22582 0.666504 11.9411 0.666504H12.0603C14.8338 0.666504 17.667 1.98253 19.35 4.16606C20.4419 5.57206 20.9428 6.97671 20.9428 9.16024V9.72828ZM8.09822 24.7476C8.09822 24.0762 8.71441 23.7687 9.28423 23.6371C9.95078 23.496 14.0124 23.496 14.6789 23.6371C15.2487 23.7687 15.8649 24.0762 15.8649 24.7476C15.8318 25.3868 15.4568 25.9535 14.9386 26.3134C14.2668 26.8371 13.4783 27.1688 12.6541 27.2884C12.1982 27.3474 11.7503 27.3488 11.3104 27.2884C10.4848 27.1688 9.69635 26.8371 9.02582 26.3121C8.50637 25.9535 8.13135 25.3868 8.09822 24.7476Z" fill="#443DF6"/>
</svg>
