<svg width="57" height="15" viewBox="0 0 57 15" fill="none" xmlns="http://www.w3.org/2000/svg">
<g clip-path="url(#clip0_152_3952)">
<path d="M46.9268 13.8828C52.1601 13.8828 55.0229 9.54656 55.0229 5.79277C55.0229 5.67142 55.0229 5.54835 55.0177 5.42701C55.5751 5.02353 56.0561 4.52401 56.4383 3.95184C55.9177 4.18139 55.366 4.33268 54.8011 4.4008C55.3961 4.04513 55.8418 3.48551 56.0552 2.82596C55.4962 3.15716 54.8843 3.38966 54.2463 3.51328C53.8175 3.05653 53.25 2.75395 52.6317 2.65241C52.0135 2.55086 51.379 2.65601 50.8265 2.95158C50.2741 3.24715 49.8345 3.71663 49.576 4.28731C49.3174 4.85799 49.2542 5.49802 49.3961 6.10825C48.2648 6.05153 47.1581 5.75764 46.1477 5.24564C45.1373 4.73364 44.2458 4.01497 43.531 3.13625C43.1681 3.76296 43.0574 4.50429 43.2213 5.20969C43.3852 5.91509 43.8114 6.53168 44.4133 6.93424C43.9622 6.91892 43.5211 6.79779 43.1254 6.58062V6.61962C43.1262 7.27615 43.3536 7.91228 43.7693 8.42047C44.1849 8.92867 44.7633 9.27776 45.4066 9.40875C45.1624 9.47602 44.9102 9.50955 44.6569 9.50842C44.4783 9.50896 44.3001 9.49242 44.1247 9.45902C44.3065 10.0242 44.6606 10.5183 45.1373 10.8722C45.6139 11.2261 46.1894 11.422 46.783 11.4326C45.7746 12.2246 44.529 12.6541 43.2467 12.652C43.0208 12.653 42.795 12.64 42.5707 12.613C43.8721 13.4427 45.3835 13.8833 46.9268 13.8828Z" fill="white"/>
</g>
<path d="M28.703 6.01049C27.709 6.01049 26.8978 6.8217 26.8978 7.81572C26.8978 8.80975 27.709 9.62095 28.703 9.62095C29.6971 9.62095 30.5083 8.80975 30.5083 7.81572C30.5083 6.8217 29.6971 6.01049 28.703 6.01049ZM34.1174 7.81572C34.1174 7.06817 34.1241 6.32739 34.0822 5.58119C34.0402 4.71447 33.8425 3.94525 33.2087 3.31145C32.5735 2.67631 31.8056 2.47994 30.9389 2.43796C30.1914 2.39598 29.4506 2.40275 28.7044 2.40275C27.9568 2.40275 27.2161 2.39598 26.4699 2.43796C25.6031 2.47994 24.8339 2.67766 24.2001 3.31145C23.565 3.9466 23.3686 4.71447 23.3266 5.58119C23.2846 6.32875 23.2914 7.06953 23.2914 7.81572C23.2914 8.56192 23.2846 9.30405 23.3266 10.0503C23.3686 10.917 23.5663 11.6862 24.2001 12.32C24.8353 12.9551 25.6031 13.1515 26.4699 13.1935C27.2174 13.2355 27.9582 13.2287 28.7044 13.2287C29.4519 13.2287 30.1927 13.2355 30.9389 13.1935C31.8056 13.1515 32.5749 12.9538 33.2087 12.32C33.8438 11.6848 34.0402 10.917 34.0822 10.0503C34.1255 9.30405 34.1174 8.56327 34.1174 7.81572ZM28.703 10.5933C27.166 10.5933 25.9255 9.35281 25.9255 7.81572C25.9255 6.27864 27.166 5.03814 28.703 5.03814C30.2401 5.03814 31.4806 6.27864 31.4806 7.81572C31.4806 9.35281 30.2401 10.5933 28.703 10.5933ZM31.5944 5.57307C31.2355 5.57307 30.9457 5.28326 30.9457 4.92438C30.9457 4.5655 31.2355 4.27569 31.5944 4.27569C31.9533 4.27569 32.2431 4.5655 32.2431 4.92438C32.2432 5.0096 32.2265 5.094 32.1939 5.17275C32.1614 5.2515 32.1136 5.32305 32.0533 5.38331C31.9931 5.44357 31.9215 5.49135 31.8428 5.52391C31.764 5.55647 31.6796 5.57318 31.5944 5.57307Z" fill="white"/>
<path d="M8.70881 13.0143V8.27852H10.3065L10.544 6.42431H8.70881V5.24325C8.70881 4.70819 8.85789 4.34185 9.62581 4.34185H10.5989V2.68872C10.1254 2.63798 9.64952 2.61348 9.17337 2.61533C7.76119 2.61533 6.79161 3.47744 6.79161 5.06008V6.42084H5.20435V8.27505H6.79508V13.0143H8.70881Z" fill="white"/>
<defs>
<clipPath id="clip0_152_3952">
<rect width="13.8676" height="13.8676" fill="white" transform="translate(42.5707 0.881836)"/>
</clipPath>
</defs>
</svg>
