<svg width="12" height="12" viewBox="0 0 12 12" fill="none" xmlns="http://www.w3.org/2000/svg">
<path d="M6.00016 1.48598e-09C6.65827 -2.05686e-05 7.29076 0.21352 7.76461 0.595717C8.23846 0.977914 8.51676 1.49899 8.54097 2.04936L8.5426 2.128L11.2884 2.12766C11.4721 2.12773 11.6486 2.1872 11.7811 2.29366C11.9136 2.40011 11.9918 2.5453 11.9994 2.69887C12.007 2.85245 11.9433 3.00253 11.8217 3.11774C11.7001 3.23296 11.5301 3.30439 11.347 3.31711L11.2884 3.31915H10.8137L10.1519 10.6621C10.119 11.026 9.92316 11.366 9.60347 11.6141C9.28378 11.8622 8.86388 12 8.42789 12H3.57243C3.13644 12 2.71654 11.8622 2.39685 11.6141C2.07716 11.366 1.88128 11.026 1.84846 10.6621L1.1862 3.31915H0.711883C0.53316 3.31914 0.360982 3.26287 0.229549 3.16152C0.0981155 3.06017 0.0170448 2.92115 0.00244057 2.77208L0 2.7234C1.50784e-05 2.57384 0.0672552 2.42975 0.188364 2.31976C0.309472 2.20977 0.475587 2.14192 0.653713 2.1297L0.711883 2.12766H3.45772C3.45772 1.00494 4.49707 0.0851063 5.81466 0.00544674L5.90701 0.00136177L6.00016 1.48598e-09ZM7.52562 4.42553C7.39974 4.42548 7.27831 4.46451 7.18483 4.53507C7.09135 4.60563 7.03247 4.7027 7.01958 4.80749L7.01714 4.85106V8.93617L7.01958 8.97974C7.03193 9.08489 7.09058 9.18242 7.18412 9.25338C7.27765 9.32433 7.39938 9.36363 7.52562 9.36363C7.65187 9.36363 7.7736 9.32433 7.86713 9.25338C7.96067 9.18242 8.01932 9.08489 8.03167 8.97974L8.03411 8.93617V4.85106L8.03167 4.80749C8.01878 4.7027 7.9599 4.60563 7.86642 4.53507C7.77294 4.46451 7.65151 4.42548 7.52562 4.42553ZM4.4747 4.42553C4.34881 4.42548 4.22738 4.46451 4.1339 4.53507C4.04042 4.60563 3.98154 4.7027 3.96865 4.80749L3.96621 4.85106V8.93617L3.96865 8.97974C3.981 9.08489 4.03965 9.18242 4.13319 9.25338C4.22672 9.32433 4.34845 9.36363 4.4747 9.36363C4.60094 9.36363 4.72267 9.32433 4.81621 9.25338C4.90974 9.18242 4.96839 9.08489 4.98074 8.97974L4.98318 8.93617V4.85106L4.98074 4.80749C4.96785 4.7027 4.90897 4.60563 4.81549 4.53507C4.72201 4.46451 4.60058 4.42548 4.4747 4.42553ZM6.0685 1.19319L6.00016 1.19149C5.71529 1.19148 5.44115 1.28241 5.23365 1.44575C5.02615 1.60909 4.90092 1.83252 4.88352 2.07047L4.88149 2.128L7.11883 2.12766C7.11885 1.88926 7.01018 1.65984 6.81501 1.4862C6.61983 1.31255 6.35284 1.20776 6.0685 1.19319Z" fill="#C5292A"/>
</svg>
