<svg width="104" height="104" viewBox="0 0 104 104" fill="none" xmlns="http://www.w3.org/2000/svg">
<g clip-path="url(#clip0_262_4004)">
<path d="M83.2949 45.2758C81.9865 45.2758 80.6924 45.4012 79.4226 45.6499C78.8433 30.0565 65.9769 17.5493 50.2443 17.5493C35.7765 17.5493 23.5349 28.254 21.3873 42.3262C9.72258 42.6113 0.320312 52.1894 0.320312 63.9213C0.320312 75.8324 10.0106 85.5227 21.9217 85.5227H39.9939C41.3606 85.5227 42.4681 84.4152 42.4681 83.0485C42.4681 81.6818 41.3606 80.5743 39.9939 80.5743H21.9217C12.7391 80.5743 5.2687 73.1039 5.2687 63.9213C5.2687 54.7388 12.7395 47.2683 21.9217 47.2683C22.3726 47.2683 22.8497 47.2905 23.3795 47.3363L25.8867 47.5534L26.0612 45.0429C26.939 32.4007 37.5616 22.4977 50.2443 22.4977C63.6158 22.4977 74.4947 33.3766 74.4947 46.7481C74.4947 47.3627 74.4653 48.0198 74.405 48.7565L74.0807 52.7046L77.7708 51.264C79.5378 50.5742 81.3964 50.2245 83.2956 50.2245C91.6778 50.2245 98.4973 57.0441 98.4973 65.4263C98.4973 73.8082 91.6778 80.6278 83.2956 80.6278C83.0752 80.6278 76.4971 80.6145 69.9458 80.6014C63.4423 80.5882 56.9655 80.575 56.7504 80.575C55.2105 80.575 54.4055 79.8334 54.3574 78.371V51.6632L57.0424 54.8522C57.9222 55.898 59.4833 56.0319 60.5284 55.1515C61.5738 54.2716 61.7077 52.7109 60.8276 51.6655L54.8773 44.5969C54.1278 43.7065 53.0507 43.1958 51.9221 43.1958C50.7936 43.1958 49.7165 43.7065 48.9673 44.5969L43.017 51.6655C42.1368 52.7109 42.2708 54.2716 43.3162 55.1515C43.7804 55.5424 44.3458 55.7331 44.9083 55.7331C45.6132 55.7331 46.3129 55.4335 46.8022 54.8522L49.4087 51.7559V78.395C49.4087 81.2605 51.3639 85.523 56.7501 85.523C56.9652 85.523 63.437 85.5362 69.9352 85.5491C76.4915 85.5626 83.0745 85.5758 83.2952 85.5758C94.4063 85.5758 103.445 76.5367 103.445 65.426C103.445 54.3149 94.406 45.2758 83.2949 45.2758Z" fill="#D4DCE0"/>
</g>
<defs>
<clipPath id="clip0_262_4004">
<rect width="103.125" height="103.125" fill="white" transform="translate(0.320312)"/>
</clipPath>
</defs>
</svg>
